<svg width="22" height="22" viewBox="0 0 22 22" fill="none" xmlns="http://www.w3.org/2000/svg">
<circle cx="11" cy="11" r="10.25" stroke="white" stroke-width="1.5"/>
<g clip-path="url(#clip0_26227_9)">
<path fill-rule="evenodd" clip-rule="evenodd" d="M6.21437 6.78394H9.71232V6.30599C9.71232 6.1377 9.86659 6 10.0558 6H11.987C12.1761 6 12.3304 6.13761 12.3304 6.30599V6.78402H15.7857C15.9038 6.78402 16.0001 6.87004 16.0001 6.97518V7.91219H6V6.9751C6 6.86995 6.09636 6.78394 6.21437 6.78394ZM6.79372 8.40926H15.2809C15.4578 8.40926 15.6185 8.53939 15.6025 8.69604L14.8842 15.7134C14.8683 15.8701 14.739 15.9999 14.5624 15.9999H7.50205C7.3254 15.9999 7.19588 15.8704 7.18017 15.7134L6.47185 8.69604C6.45614 8.53882 6.61662 8.40926 6.79372 8.40926ZM12.3093 9.49919H13.2105V14.8145H12.3093V9.49919ZM8.7467 9.49919H9.64793V14.8145H8.7467V9.49919ZM10.5278 9.49919H11.4292V14.8145H10.5278V9.49919Z" fill="white"/>
</g>
<defs>
<clipPath id="clip0_26227_9">
<rect width="10" height="10" fill="white" transform="translate(6 6)"/>
</clipPath>
</defs>
</svg>
