<svg width="22" height="22" viewBox="0 0 22 22" fill="none" xmlns="http://www.w3.org/2000/svg">
<g clip-path="url(#clip0_26227_20)">
<path d="M10.9999 0C14.0374 0 16.7874 1.23123 18.7781 3.22194C20.7688 5.21247 22 7.96265 22 11C22 14.0377 20.7688 16.7875 18.7781 18.7781C16.7874 20.7688 14.0374 22 10.9999 22C7.9624 22 5.21243 20.7688 3.22191 18.7781C1.23122 16.7875 0 14.0375 0 10.9998C0 7.96247 1.23122 5.21229 3.22191 3.22176C5.21243 1.23123 7.9624 0 10.9999 0ZM14.3514 6.69041C14.5844 6.45731 14.9623 6.45731 15.1952 6.69041C15.4282 6.92334 15.4282 7.30111 15.1952 7.53421L11.7289 11.0007L15.1952 14.4672C15.4282 14.7001 15.4282 15.0779 15.1952 15.311C14.9623 15.5439 14.5844 15.5439 14.3514 15.311L10.885 11.8445L7.41849 15.3112C7.18557 15.5441 6.80763 15.5441 6.5747 15.3112C6.34178 15.0781 6.34178 14.7003 6.5747 14.4674L10.0414 11.0009L6.5747 7.53421C6.34178 7.30111 6.34178 6.92334 6.5747 6.69041C6.80763 6.45731 7.18557 6.45731 7.41849 6.69041L10.8851 10.1569L14.3514 6.69041ZM17.9343 4.06556C16.1597 2.29095 13.708 1.19346 10.9999 1.19346C8.29183 1.19346 5.8403 2.29095 4.06571 4.06556C2.29111 5.84017 1.19345 8.29189 1.19345 10.9998C1.19345 13.7079 2.29111 16.1597 4.06553 17.9343C5.84012 19.7087 8.29165 20.8064 10.9997 20.8064C13.7078 20.8064 16.1595 19.7087 17.9341 17.9343C19.7087 16.1597 20.8064 13.7079 20.8064 10.9998C20.8066 8.29189 19.7089 5.84017 17.9343 4.06556Z" fill="white"/>
</g>
<defs>
<clipPath id="clip0_26227_20">
<rect width="22" height="22" fill="white"/>
</clipPath>
</defs>
</svg>
