<svg width="20" height="20" viewBox="0 0 20 20" fill="none" xmlns="http://www.w3.org/2000/svg">
<path fill-rule="evenodd" clip-rule="evenodd" d="M4 1.5H16C17.3807 1.5 18.5 2.61929 18.5 4V10.9091H14.9091C12.7 10.9091 10.9091 12.7 10.9091 14.9091V18.5H4C2.61929 18.5 1.5 17.3807 1.5 16V4C1.5 2.61929 2.61929 1.5 4 1.5ZM10.9091 20H4C1.79086 20 0 18.2091 0 16V4C0 1.79086 1.79086 0 4 0H16C18.2091 0 20 1.79086 20 4V10.9091H20V16C20 17.6569 18.9927 19.0784 17.557 19.6857C17.0784 19.8881 16.5523 20 16.0001 20C16 20 16 20 16 20M16 20H10.9091H16Z" fill="white"/>
</svg>
