<svg width="20" height="20" viewBox="0 0 20 20" fill="none" xmlns="http://www.w3.org/2000/svg">
<path fill-rule="evenodd" clip-rule="evenodd" d="M4 1.5H16C17.3807 1.5 18.5 2.61929 18.5 4V12.6909L13.3376 11.3143C12.329 11.0453 11.2895 10.9091 10.2456 10.9091H9.75433C8.71045 10.9091 7.67102 11.0453 6.66238 11.3143L1.5 12.6909V4C1.5 2.61929 2.61929 1.5 4 1.5ZM0 4C0 1.79086 1.79086 0 4 0H16C18.2091 0 20 1.79086 20 4V16C20 18.2091 18.2091 20 16 20H4C1.79086 20 0 18.2091 0 16V4ZM7.27272 5.45455C7.27272 6.4587 6.45869 7.27273 5.45453 7.27273C4.45038 7.27273 3.63635 6.4587 3.63635 5.45455C3.63635 4.45039 4.45038 3.63636 5.45453 3.63636C6.45869 3.63636 7.27272 4.45039 7.27272 5.45455Z" fill="white"/>
</svg>
