<svg width="20" height="20" viewBox="0 0 20 20" fill="none" xmlns="http://www.w3.org/2000/svg">
<path fill-rule="evenodd" clip-rule="evenodd" d="M18.5 10C18.5 14.6944 14.6944 18.5 10 18.5C5.30558 18.5 1.5 14.6944 1.5 10C1.5 5.30558 5.30558 1.5 10 1.5C14.6944 1.5 18.5 5.30558 18.5 10ZM20 10C20 15.5228 15.5228 20 10 20C4.47715 20 0 15.5228 0 10C0 4.47715 4.47715 0 10 0C15.5228 0 20 4.47715 20 10ZM9.99998 12.7273C11.5062 12.7273 12.7273 11.5062 12.7273 10C12.7273 8.49377 11.5062 7.27273 9.99998 7.27273C8.49375 7.27273 7.27271 8.49377 7.27271 10C7.27271 11.5062 8.49375 12.7273 9.99998 12.7273Z" fill="white"/>
</svg>
