<svg width="20" height="20" viewBox="0 0 20 20" fill="none" xmlns="http://www.w3.org/2000/svg">
<g clip-path="url(#clip0_26188_13)">
<path fill-rule="evenodd" clip-rule="evenodd" d="M10 10.0001C7.794 10.0001 6 8.20605 6 6.00005C6 3.79405 7.794 2.00005 10 2.00005C12.206 2.00005 14 3.79405 14 6.00005C14 8.20605 12.206 10.0001 10 10.0001ZM13.758 10.673C14.4582 10.112 15.0232 9.40086 15.4113 8.59197C15.7994 7.78308 16.0006 6.89722 16 6.00005C16.0007 4.9856 15.7442 3.98758 15.2545 3.09917C14.7647 2.21077 14.0577 1.46094 13.1996 0.919972C12.3414 0.379004 11.3601 0.0645091 10.3473 0.00578785C9.33457 -0.0529334 8.32346 0.14612 7.40851 0.584279C6.49356 1.02244 5.70465 1.68543 5.11551 2.51128C4.52637 3.33713 4.15622 4.29883 4.0397 5.30657C3.92319 6.31431 4.06408 7.33511 4.44922 8.27361C4.83436 9.21211 5.45118 10.0376 6.242 10.673C2.583 12.048 0 15.4451 0 20.0001H2C2 15.0001 5.589 12.0001 10 12.0001C14.411 12.0001 18 15.0001 18 20.0001H20C20 15.4451 17.417 12.048 13.758 10.673Z" fill="white"/>
</g>
<defs>
<clipPath id="clip0_26188_13">
<rect width="20" height="20" fill="white"/>
</clipPath>
</defs>
</svg>
